# xmcd CD database file
#
# Track frame offsets:
#	150
#	14617
#	34657
#	56027
#	73297
#	87272
#	101842
#	117362
#	134305
#	149970
#
# Disc length: 2271 seconds
#
# Revision: 3
# Processed by: cddbd v1.5.2PL0 Copyright (c) Steve Scherf et al.
# Submitted via: CDex 1.70beta2
#
DISCID=9d08dd0a
DTITLE=陳曉東 - 心的接觸 
DYEAR=1998
DGENRE=Pop
TTITLE0=急凍心靈
TTITLE1=心的接觸
TTITLE2=一萬年(每一天都想念粵語版)
TTITLE3=佔領
TTITLE4=最佳聽眾
TTITLE5=從深海中到外太空
TTITLE6=等著你開口
TTITLE7=你想要的
TTITLE8=心理遊戲(Psychedelic Remix)
TTITLE9=心有獨鍾 
EXTD=YEAR: 1998
EXTT0=
EXTT1=
EXTT2=
EXTT3=
EXTT4=
EXTT5=
EXTT6=
EXTT7=
EXTT8=
EXTT9=
PLAYORDER=
